<svg width="80" height="60" viewBox="0 0 60 60" xmlns="http://www.w3.org/2000/svg">
  <!-- Background circle for the icon -->
  <circle cx="30" cy="30" r="25" fill="#2563eb" opacity="0.1"/>
  
  <!-- Shield outline -->
  <path d="M30 8 L42 15 L42 28 C42 36 36 42 30 48 C24 42 18 36 18 28 L18 15 Z" 
        fill="none" 
        stroke="#2563eb" 
        stroke-width="2.5" 
        stroke-linejoin="round"/>
  
  <!-- Shield fill -->
  <path d="M30 12 L38 17 L38 27 C38 33 34 37 30 42 C26 37 22 33 22 27 L22 17 Z" 
        fill="#2563eb" 
        opacity="0.8"/>
  
  <!-- Lock icon inside shield -->
  <rect x="26" y="24" width="8" height="6" rx="1" fill="white"/>
  <path d="M27 24 L27 21 C27 19.5 28.5 18 30 18 C31.5 18 33 19.5 33 21 L33 24" 
        fill="none" 
        stroke="white" 
        stroke-width="1.5" 
        stroke-linecap="round"/>
  <circle cx="30" cy="27" r="1" fill="#2563eb"/>
  
  <!-- Eye symbol for vigilance -->
  <ellipse cx="47" cy="22" rx="6" ry="4" fill="none" stroke="#64748b" stroke-width="1.5"/>
  <circle cx="47" cy="22" r="2" fill="#64748b"/>
  <circle cx="47" cy="22" r="1" fill="white"/>
  
  <!-- Connection dots -->
  <circle cx="37" cy="35" r="1.5" fill="#64748b"/>
  <circle cx="42" cy="38" r="1" fill="#64748b" opacity="0.6"/>
  <circle cx="46" cy="35" r="1" fill="#64748b" opacity="0.4"/>
  
  <defs>
    <linearGradient id="shieldGradient" x1="0%" y1="0%" x2="0%" y2="100%">
      <stop offset="0%" style="stop-color:#3b82f6;stop-opacity:1" />
      <stop offset="100%" style="stop-color:#1d4ed8;stop-opacity:1" />
    </linearGradient>
  </defs>
</svg>